HIERARCHY
ROOT Hips
{
	OFFSET	0.00	0.00	0.00
	CHANNELS 6 Xposition Yposition Zposition Zrotation Xrotation Yrotation
	JOINT LeftUpLeg
	{
		OFFSET	 0.126116	-0.014019	-0.065224
		CHANNELS 3 Zrotation Xrotation Yrotation
		JOINT LeftLeg
		{
			OFFSET	 0.000000	 0.000000	 0.569914
			CHANNELS 3 Zrotation Xrotation Yrotation
			JOINT LeftFoot
			{
				OFFSET	 0.000000	 0.000000	 0.544423
				CHANNELS 3 Zrotation Xrotation Yrotation
				JOINT LeftToeBase
				{
					OFFSET	 0.000000	 0.000000	 0.207117
					CHANNELS 3 Zrotation Xrotation Yrotation
					End Site
					{
						OFFSET	 0.000000	 0.000000	 0.207117
					}
				}
			}
		}
	}
	JOINT RightUpLeg
	{
		OFFSET	-0.124023	-0.008373	-0.065224
		CHANNELS 3 Zrotation Xrotation Yrotation
		JOINT RightLeg
		{
			OFFSET	 0.000000	 0.000000	 0.570047
			CHANNELS 3 Zrotation Xrotation Yrotation
			JOINT RightFoot
			{
				OFFSET	 0.000000	 0.000000	 0.544354
				CHANNELS 3 Zrotation Xrotation Yrotation
				JOINT RightToeBase
				{
					OFFSET	 0.000000	 0.000000	 0.207540
					CHANNELS 3 Zrotation Xrotation Yrotation
					End Site
					{
						OFFSET	 0.000000	 0.000000	 0.207540
					}
				}
			}
		}
	}
	JOINT Spine
	{
		OFFSET	 0.000184	-0.007763	 0.117403
		CHANNELS 3 Zrotation Xrotation Yrotation
		JOINT Spine1
		{
			OFFSET	 0.000000	 0.000000	 0.137269
			CHANNELS 3 Zrotation Xrotation Yrotation
			JOINT Spine2
			{
				OFFSET	 0.000000	 0.000000	 0.156879
				CHANNELS 3 Zrotation Xrotation Yrotation
				JOINT LeftShoulder
				{
					OFFSET	 0.080501	-0.002496	 0.160144
					CHANNELS 3 Zrotation Xrotation Yrotation
					JOINT LeftArm
					{
						OFFSET	 0.000000	 0.000000	 0.164363
						CHANNELS 3 Zrotation Xrotation Yrotation
						JOINT LeftForeArm
						{
							OFFSET	 0.000000	 0.000000	 0.364576
							CHANNELS 3 Zrotation Xrotation Yrotation
							JOINT LeftHand
							{
								OFFSET	 0.000000	 0.000000	 0.360812
								CHANNELS 3 Zrotation Xrotation Yrotation
								JOINT LeftHandIndex1
								{
									OFFSET	 0.000000	 0.000000	 0.086006
									CHANNELS 3 Zrotation Xrotation Yrotation
									JOINT LeftHandIndex2
									{
										OFFSET	 0.000000	 0.000000	 0.047236
										CHANNELS 3 Zrotation Xrotation Yrotation
										JOINT LeftHandIndex3
										{
											OFFSET	-0.004284	-0.000551	 0.038166
											CHANNELS 3 Zrotation Xrotation Yrotation
											End Site
											{
												OFFSET	-0.004284	-0.000551	 0.038166
											}
										}
									}
								}
							}
						}
					}
				}
				JOINT Neck
				{
					OFFSET	 0.000000	 0.000000	 0.176489
					CHANNELS 3 Zrotation Xrotation Yrotation
					JOINT Head
					{
						OFFSET	 0.000000	-0.001747	 0.077940
						CHANNELS 3 Zrotation Xrotation Yrotation
						End Site
						{
							OFFSET	 0.000000	-0.001747	 0.077940
						}
					}
				}
				JOINT RightShoulder
				{
					OFFSET	-0.080363	 0.000306	 0.159706
					CHANNELS 3 Zrotation Xrotation Yrotation
					JOINT RightArm
					{
						OFFSET	 0.000000	 0.000000	 0.164196
						CHANNELS 3 Zrotation Xrotation Yrotation
						JOINT RightForeArm
						{
							OFFSET	 0.000000	 0.000000	 0.365611
							CHANNELS 3 Zrotation Xrotation Yrotation
							JOINT RightHand
							{
								OFFSET	 0.000000	 0.000000	 0.360648
								CHANNELS 3 Zrotation Xrotation Yrotation
								JOINT RightHandIndex1
								{
									OFFSET	 0.000000	 0.000000	 0.069977
									CHANNELS 3 Zrotation Xrotation Yrotation
									JOINT RightHandIndex2
									{
										OFFSET	 0.000000	 0.000000	 0.052305
										CHANNELS 3 Zrotation Xrotation Yrotation
										JOINT RightHandIndex3
										{
											OFFSET	 0.009002	-0.000782	 0.042196
											CHANNELS 3 Zrotation Xrotation Yrotation
											End Site
											{
												OFFSET	 0.009002	-0.000782	 0.042196
											}
										}
									}
								}
							}
						}
					}
				}
			}
		}
	}
}
MOTION
Frames:    11
Frame Time: 0.03333334
-0.000654	 0.011115	 1.226071	 0.003124	 0.003642	-0.141975	 25.242950	-14.538190	 175.646400	 0.872472	-33.870060	-2.212956	-24.367670	 79.706730	 19.143850	-2.385833	 28.452760	 0.000004	-25.302960	-14.524640	-175.283700	-0.863064	-34.024590	 2.184940	 25.442570	 80.121990	-20.382710	 2.384658	 28.388730	 0.000004	 39.191980	 2.741304	-0.061692	 1.664685	 3.641652	 0.664212	-5.006052	-4.530831	-1.096059	-91.776250	 78.527420	-180.000000	 41.996880	 29.508400	-52.907360	-22.998310	 2.318967	-8.024265	-36.428470	 2.496042	-3.948200	-2.635965	 4.993658	 6.788941	-5.165319	 0.784187	 3.516649	-5.225038	 0.466231	 0.424329	-0.000002	-3.783157	-0.089647	-4.859798	 4.822809	 0.204762	 89.782140	 78.203890	 180.000000	-1.190299	 11.927780	 113.203600	-19.518710	 2.006580	 8.140449	 11.474610	 0.538274	-6.264645	 6.112037	 4.509576	-0.364401	 4.968462	 1.518543	-9.347576	 5.168945	 0.703820	 2.021906
-0.000658	 0.010233	 1.226803	 0.003126	 0.003649	-0.141978	 25.253210	-14.400540	 175.636700	 0.884642	-33.606920	-2.191046	-24.055000	 79.595330	 18.825870	-2.385833	 28.452760	 0.000004	-25.312530	-14.348360	-175.258900	-0.875855	-33.744830	 2.162006	 25.227330	 80.025750	-20.166800	 2.384658	 28.388730	 0.000004	 38.547890	 2.741301	-0.061691	 1.664682	 3.641630	 0.664222	-5.006048	-4.530817	-1.096062	-91.776190	 78.527430	-180.000000	 42.047260	 29.546800	-53.003490	-18.882230	 1.313992	-5.986859	-36.766580	 2.563797	-3.927415	-2.635965	 4.993658	 6.788941	-5.165319	 0.784187	 3.516649	-5.225038	 0.466231	 0.424329	-0.000002	-3.783157	-0.089647	-4.859798	 4.822809	 0.204762	 89.782140	 78.203890	 179.999900	-1.314755	 12.095630	 113.220300	-23.785530	 0.992938	 6.079336	 11.841290	 0.414418	-6.320044	 6.112037	 4.509576	-0.364401	 4.968462	 1.518543	-9.347576	 5.168945	 0.703820	 2.021906
-0.000612	 0.009184	 1.227362	 0.003124	 0.003642	-0.141975	 25.260890	-14.289630	 175.627100	 0.893974	-33.402640	-2.174136	-23.834630	 79.511570	 18.602050	-2.385833	 28.452760	 0.000004	-25.319190	-14.193000	-175.232000	-0.885964	-33.520660	 2.143736	 25.124250	 79.958560	-20.065460	 2.384658	 28.388730	 0.000004	 35.505940	 2.741305	-0.061692	 1.664683	 3.641652	 0.664219	-5.006050	-4.530831	-1.096062	-91.776250	 78.527470	-180.000000	 42.158950	 29.640130	-53.222990	-13.636910	 0.490604	-3.296244	-37.180450	 2.639834	-3.904279	-2.635965	 4.993658	 6.788941	-5.165319	 0.784187	 3.516649	-5.225038	 0.466231	 0.424329	-0.000002	-3.783157	-0.089647	-4.859798	 4.822809	 0.204762	 89.782140	 78.203890	 180.000000	-1.325878	 12.494110	 113.219300	-29.219690	 0.160478	 3.360510	 12.099010	 0.412222	-6.385392	 6.112037	 4.509576	-0.364401	 4.968462	 1.518543	-9.347576	 5.168945	 0.703820	 2.021906
-0.000587	 0.008228	 1.228183	 0.003125	 0.003640	-0.141977	 25.272630	-14.133900	 175.616300	 0.907473	-33.103570	-2.149513	-23.489990	 79.383760	 18.251270	-2.385833	 28.452760	 0.000004	-25.330480	-13.995370	-175.205000	-0.900141	-33.202630	 2.117968	 24.874870	 79.846970	-19.814810	 2.384658	 28.388730	 0.000004	 30.232300	 2.741305	-0.061690	 1.664683	 3.641649	 0.664212	-5.006050	-4.530827	-1.096059	-91.776250	 78.527450	-180.000000	 42.315070	 29.791500	-53.544060	-8.252662	 0.175409	-0.479751	-37.597880	 2.709362	-3.883435	-2.635965	 4.993658	 6.788941	-5.165319	 0.784187	 3.516649	-5.225038	 0.466231	 0.424329	-0.000002	-3.783157	-0.089647	-4.859797	 4.822809	 0.204762	 89.782170	 78.203900	 179.999900	-3.335305	 12.764440	 112.927000	-34.584790	-0.159449	 0.509511	 11.560890	 0.665183	-6.433162	 6.112037	 4.509576	-0.364401	 4.968462	 1.518543	-9.347576	 5.168945	 0.703820	 2.021906
-0.000614	 0.007399	 1.229486	 0.003127	 0.003647	-0.141975	 25.291920	-13.893930	 175.602800	 0.928543	-32.627790	-2.110692	-22.926510	 79.173840	 17.676840	-2.385833	 28.452760	 0.000004	-25.350130	-13.715980	-175.176500	-0.921696	-32.708910	 2.078341	 24.374840	 79.653590	-19.308370	 2.384658	 28.388730	 0.000004	 23.165740	 2.741295	-0.061691	 1.664683	 3.641656	 0.664215	-5.006052	-4.530832	-1.096061	-91.776150	 78.527450	 180.000000	 42.491070	 29.973240	-53.914630	-2.920650	-0.120616	-3.214272	-38.015730	 2.772212	-3.865004	-2.635965	 4.993658	 6.788941	-5.165319	 0.784187	 3.516649	-5.225038	 0.466231	 0.424329	-0.000002	-3.783157	-0.089647	-4.859801	 4.822807	 0.204762	 89.782070	 78.203900	-180.000000	-7.912461	 13.299060	 112.338800	-39.174410	-0.450872	 3.217299	 11.098930	 0.671005	-6.382164	 6.112037	 4.509576	-0.364401	 4.968462	 1.518543	-9.347576	 5.168945	 0.703820	 2.021906
-0.000634	 0.006553	 1.230856	 0.003124	 0.003642	-0.141971	 25.312540	-13.638700	 175.588500	 0.950461	-32.120540	-2.069755	-22.347490	 78.948460	 17.086080	-2.385833	 28.452760	 0.000004	-25.371370	-13.420690	-175.147100	-0.944096	-32.182850	 2.036596	 23.852430	 79.444990	-18.778710	 2.384658	 28.388730	 0.000004	 14.294860	 2.741307	-0.061694	 1.664683	 3.641636	 0.664251	-5.006054	-4.530808	-1.096079	-91.776210	 78.527450	-180.000000	 42.711220	 30.210330	-54.383250	 2.503973	-0.963696	-6.031920	-38.457710	 2.831998	-3.847769	-2.635965	 4.993658	 6.788941	-5.165319	 0.784187	 3.516649	-5.225038	 0.466231	 0.424329	-0.000002	-3.783157	-0.089647	-4.859798	 4.822809	 0.204762	 89.782070	 78.203870	-180.000000	-14.044530	 14.530420	 110.768500	-42.985230	-1.280596	 6.010125	 11.729430	 0.103443	-6.201334	 6.112037	 4.509576	-0.364401	 4.968462	 1.518543	-9.347576	 5.168945	 0.703820	 2.021906
-0.000635	 0.005627	 1.232190	 0.003128	 0.003645	-0.141973	 25.332880	-13.385190	 175.573700	 0.971616	-31.618530	-2.029685	-21.801530	 78.725020	 16.528680	-2.385833	 28.452760	 0.000004	-25.392400	-13.124010	-175.116200	-0.965780	-31.659770	 1.995575	 23.367130	 79.238960	-18.286680	 2.384658	 28.388730	 0.000004	 3.529527	 2.741298	-0.061694	 1.664684	 3.641652	 0.664212	-5.006052	-4.530827	-1.096059	-91.776200	 78.527470	-180.000000	 42.974000	 30.494030	-54.940910	 8.110485	-2.415893	-8.821699	-38.941030	 2.891623	-3.829698	-2.635965	 4.993658	 6.788941	-5.165319	 0.784187	 3.516649	-5.225038	 0.466231	 0.424329	-0.000002	-3.783157	-0.089647	-4.859798	 4.822809	 0.204762	 89.782050	 78.203900	-180.000000	-21.392780	 16.975230	 107.949800	-46.207450	-2.712566	 8.780942	 13.749190	-0.991674	-5.812283	 6.112037	 4.509576	-0.364401	 4.968462	 1.518543	-9.347576	 5.168945	 0.703820	 2.021906
-0.000639	 0.004786	 1.233053	 0.003124	 0.003642	-0.141975	 25.346070	-13.214480	 175.562200	 0.985291	-31.287360	-2.003485	-21.466810	 78.579710	 16.186990	-2.385833	 28.452760	 0.000004	-25.405050	-12.920250	-175.089400	-0.979366	-31.324910	 1.969555	 23.124740	 79.116820	-18.042150	 2.384658	 28.388730	 0.000004	-6.999494	 2.741304	-0.061692	 1.664684	 3.641648	 0.664233	-5.006045	-4.530822	-1.096069	-91.776270	 78.527450	-179.999900	 43.258480	 30.793190	-55.536530	 13.001790	-4.169769	-11.098240	-39.403020	 2.943268	-3.812937	-2.635965	 4.993658	 6.788941	-5.165319	 0.784187	 3.516649	-5.225038	 0.466231	 0.424329	-0.000002	-3.783157	-0.089647	-4.859797	 4.822809	 0.204762	 89.782100	 78.203890	 180.000000	-28.921340	 20.332800	 104.534800	-48.529380	-4.446776	 11.049190	 16.690120	-2.271485	-5.185470	 6.112037	 4.509576	-0.364401	 4.968462	 1.518543	-9.347576	 5.168945	 0.703820	 2.021906
-0.000636	 0.003910	 1.233807	 0.003124	 0.003642	-0.141971	 25.357670	-13.061850	 175.551200	 0.997203	-30.994100	-1.980442	-21.183260	 78.451810	 15.897520	-2.385833	 28.452760	 0.000004	-25.413820	-12.756820	-175.063800	-0.989371	-31.075220	 1.950265	 22.995840	 79.034130	-17.913420	 2.384658	 28.388730	 0.000004	-17.038370	 2.741298	-0.061696	 1.664683	 3.641644	 0.664245	-5.006056	-4.530812	-1.096076	-91.776190	 78.527430	 180.000000	 43.571330	 31.110650	-56.180800	 17.377610	-6.122898	-12.962920	-39.875550	 2.990260	-3.796325	-2.635965	 4.993658	 6.788941	-5.165319	 0.784187	 3.516649	-5.225038	 0.466231	 0.424329	-0.000002	-3.783157	-0.089647	-4.859797	 4.822809	 0.204762	 89.782130	 78.203850	 180.000000	-36.443230	 24.244000	 99.881500	-50.230400	-6.379116	 12.910270	 19.764280	-3.395364	-4.266033	 6.112037	 4.509576	-0.364401	 4.968462	 1.518543	-9.347576	 5.168945	 0.703820	 2.021906
-0.000615	 0.002838	 1.234920	 0.003124	 0.003642	-0.141971	 25.375190	-12.839640	 175.536800	 1.014570	-30.558940	-1.946511	-20.758360	 78.258200	 15.463170	-2.385833	 28.452760	 0.000004	-25.423850	-12.572860	-175.035000	-1.000492	-30.793340	 1.928623	 22.850680	 78.940320	-17.768340	 2.384658	 28.388730	 0.000004	-26.176570	 2.741307	-0.061694	 1.664683	 3.641629	 0.664242	-5.006056	-4.530806	-1.096074	-91.776210	 78.527470	-180.000000	 43.926200	 31.463490	-56.903450	 21.366550	-8.214917	-14.483510	-40.406800	 3.035622	-3.778340	-2.635965	 4.993658	 6.788941	-5.165319	 0.784187	 3.516649	-5.225038	 0.466231	 0.424329	-0.000002	-3.783157	-0.089647	-4.859797	 4.822809	 0.204762	 89.782190	 78.203850	 179.999900	-43.933630	 28.077150	 92.866100	-50.862740	-8.447447	 14.436810	 22.511390	-4.143394	-2.818132	 6.112037	 4.509576	-0.364401	 4.968462	 1.518543	-9.347576	 5.168945	 0.703820	 2.021906
-0.000612	 0.001911	 1.235780	 0.003125	 0.003640	-0.141977	 25.388840	-12.664380	 175.524900	 1.027916	-30.217870	-1.920129	-20.439330	 78.106900	 15.136910	-2.385833	 28.452760	 0.000004	-25.432720	-12.412390	-175.010100	-1.010098	-30.546790	 1.909788	 22.724130	 78.857850	-17.641750	 2.384658	 28.388730	 0.000004	-31.197210	 2.741305	-0.061690	 1.664685	 3.641649	 0.664212	-5.006053	-4.530827	-1.096059	-91.776200	 78.527450	-180.000000	 44.241550	 31.766110	-57.531640	 23.879510	-9.681641	-15.340300	-40.866580	 3.068274	-3.763485	-2.635965	 4.993658	 6.788941	-5.165319	 0.784187	 3.516649	-5.225038	 0.466231	 0.424329	-0.000002	-3.783157	-0.089647	-4.859797	 4.822809	 0.204762	 89.782140	 78.203890	 179.999900	-46.996970	 31.061330	 76.762120	-46.827130	-18.131430	 28.435230	 24.933950	-4.457917	-1.206446	 6.112037	 4.509576	-0.364401	 4.968462	 1.518543	-9.347576	 5.168945	 0.703820	 2.021906
